<svg xmlns="http://www.w3.org/2000/svg" width="1600" height="1000" viewBox="0 0 1600 1000" role="img" aria-label="Educational learning platform preview">
  <defs>
    <linearGradient id="bg" x1="0" y1="0" x2="1" y2="1">
      <stop offset="0" stop-color="#071018"/>
      <stop offset="0.55" stop-color="#18283a"/>
      <stop offset="1" stop-color="#070a12"/>
    </linearGradient>
    <linearGradient id="accent" x1="0" y1="0" x2="1" y2="1">
      <stop offset="0" stop-color="#62f5b4"/>
      <stop offset="1" stop-color="#52e6ff"/>
    </linearGradient>
  </defs>
  <rect width="1600" height="1000" fill="url(#bg)"/>
  <circle cx="310" cy="150" r="250" fill="#62f5b4" opacity="0.13"/>
  <circle cx="1310" cy="180" r="250" fill="#52e6ff" opacity="0.12"/>
  <rect x="110" y="110" width="1380" height="780" rx="42" fill="#ffffff" opacity="0.07" stroke="#ffffff" stroke-opacity="0.16"/>
  <rect x="160" y="170" width="1280" height="620" rx="34" fill="#0d1628" stroke="#ffffff" stroke-opacity="0.14"/>
  <rect x="160" y="170" width="1280" height="86" rx="34" fill="#ffffff" opacity="0.05"/>
  <circle cx="214" cy="214" r="10" fill="#62f5b4"/>
  <circle cx="246" cy="214" r="10" fill="#ffd166"/>
  <circle cx="278" cy="214" r="10" fill="#ff76bd"/>
  <text x="210" y="365" fill="#62f5b4" font-family="Arial, sans-serif" font-size="30" font-weight="700">Educational Learning Platform</text>
  <text x="210" y="470" fill="#f7fbff" font-family="Arial, sans-serif" font-size="66" font-weight="900">Learn by chapter</text>
  <text x="210" y="540" fill="#dce7f5" font-family="Arial, sans-serif" font-size="38" font-weight="700">Audio lectures, written explanations, and YouTube lessons</text>
  <rect x="210" y="620" width="280" height="72" rx="36" fill="url(#accent)"/>
  <text x="254" y="667" fill="#071018" font-family="Arial, sans-serif" font-size="25" font-weight="900">Start learning</text>
  <rect x="860" y="300" width="260" height="340" rx="28" fill="#ffffff" opacity="0.12" stroke="#ffffff" stroke-opacity="0.14"/>
  <rect x="890" y="340" width="200" height="22" rx="11" fill="#52e6ff" opacity="0.75"/>
  <rect x="890" y="384" width="230" height="18" rx="9" fill="#ffffff" opacity="0.36"/>
  <rect x="890" y="420" width="190" height="18" rx="9" fill="#ffffff" opacity="0.28"/>
  <rect x="890" y="495" width="190" height="110" rx="22" fill="#0d1628" stroke="#ffffff" stroke-opacity="0.12"/>
</svg>
