<svg xmlns="http://www.w3.org/2000/svg" width="1600" height="1000" viewBox="0 0 1600 1000" role="img" aria-label="Textile company website preview">
  <defs>
    <linearGradient id="bg" x1="0" y1="0" x2="1" y2="1">
      <stop offset="0" stop-color="#081018"/>
      <stop offset="0.6" stop-color="#1a2230"/>
      <stop offset="1" stop-color="#070a12"/>
    </linearGradient>
    <linearGradient id="accent" x1="0" y1="0" x2="1" y2="1">
      <stop offset="0" stop-color="#ffd166"/>
      <stop offset="1" stop-color="#78a7ff"/>
    </linearGradient>
  </defs>
  <rect width="1600" height="1000" fill="url(#bg)"/>
  <circle cx="280" cy="190" r="240" fill="#ffd166" opacity="0.12"/>
  <circle cx="1320" cy="150" r="280" fill="#78a7ff" opacity="0.12"/>
  <rect x="110" y="110" width="1380" height="780" rx="42" fill="#ffffff" opacity="0.07" stroke="#ffffff" stroke-opacity="0.16"/>
  <rect x="160" y="170" width="1280" height="620" rx="34" fill="#0d1628" stroke="#ffffff" stroke-opacity="0.14"/>
  <rect x="160" y="170" width="1280" height="86" rx="34" fill="#ffffff" opacity="0.05"/>
  <circle cx="214" cy="214" r="10" fill="#62f5b4"/>
  <circle cx="246" cy="214" r="10" fill="#ffd166"/>
  <circle cx="278" cy="214" r="10" fill="#ff76bd"/>
  <text x="210" y="365" fill="#ffd166" font-family="Arial, sans-serif" font-size="30" font-weight="700">Textile Company Website</text>
  <text x="210" y="470" fill="#f7fbff" font-family="Arial, sans-serif" font-size="68" font-weight="900">Crafted for business</text>
  <text x="210" y="540" fill="#dce7f5" font-family="Arial, sans-serif" font-size="38" font-weight="700">Corporate profile, product showcase, and modern UI</text>
  <rect x="210" y="620" width="260" height="72" rx="36" fill="url(#accent)"/>
  <text x="257" y="667" fill="#071018" font-family="Arial, sans-serif" font-size="25" font-weight="900">View products</text>
  <rect x="840" y="300" width="280" height="340" rx="28" fill="#ffffff" opacity="0.12" stroke="#ffffff" stroke-opacity="0.14"/>
  <rect x="870" y="340" width="220" height="26" rx="13" fill="#78a7ff" opacity="0.7"/>
  <rect x="870" y="385" width="180" height="18" rx="9" fill="#ffffff" opacity="0.38"/>
  <rect x="870" y="420" width="220" height="18" rx="9" fill="#ffffff" opacity="0.28"/>
  <rect x="870" y="495" width="220" height="110" rx="22" fill="#0d1628" stroke="#ffffff" stroke-opacity="0.12"/>
</svg>
